<svg xmlns="http://www.w3.org/2000/svg" viewBox="0 0 64 64">
	<defs>
		<linearGradient id="g" x1="0" y1="0" x2="1" y2="1">
			<stop offset="0" stop-color="oklch(0.62 0.2 268)" />
			<stop offset="1" stop-color="oklch(0.475 0.185 268)" />
		</linearGradient>
	</defs>
	<rect width="64" height="64" rx="14" fill="url(#g)" />
	<path
		d="M42 22.5c-2.2-2.6-5.6-4-9.7-4-6.6 0-10.8 3.5-10.8 8.5 0 4.6 3.2 7 9.5 8.1l3 .5c3.4.6 4.8 1.6 4.8 3.4 0 2.1-2.1 3.5-5.4 3.5-3.6 0-5.9-1.4-7.4-3.9l-4.9 3c2.3 4.3 6.8 6.4 12.2 6.4 7 0 11.3-3.6 11.3-8.9 0-4.5-2.9-7-9.3-8.1l-3-.5c-3.6-.6-5-1.5-5-3.3 0-2 2-3.3 5-3.3 3 0 5.1 1.2 6.4 3.3z"
		fill="#fff"
	/>
</svg>
